<svg width="27" height="28" viewBox="0 0 27 28" fill="none" xmlns="http://www.w3.org/2000/svg">
<path fill-rule="evenodd" clip-rule="evenodd" d="M4.2723 1.78723C3.71965 1.78723 3.27164 2.26109 3.27164 2.84563C3.27164 3.43017 3.71965 3.90403 4.2723 3.90403C4.82496 3.90403 5.27297 3.43017 5.27297 2.84563C5.27297 2.26109 4.82496 1.78723 4.2723 1.78723ZM1.58189 2.84563C1.58189 1.27403 2.78643 0 4.2723 0C5.41365 0 6.389 0.751712 6.77995 1.81258H21.1493C21.6544 0.738253 22.7027 0 23.9141 0C25.6184 0 27 1.46131 27 3.26392C27 5.06653 25.6184 6.52784 23.9141 6.52784C23.1695 6.52784 22.4864 6.24888 21.9533 5.78437L16.6772 10.2053L21.0076 13.2061C21.4739 12.7956 22.0736 12.5487 22.7277 12.5487C24.2136 12.5487 25.4181 13.8227 25.4181 15.3943C25.4181 16.9659 24.2136 18.2399 22.7277 18.2399C21.7265 18.2399 20.853 17.6614 20.3897 16.8032L15.9882 18.8638L19.2144 21.7512C19.7611 21.231 20.4844 20.9144 21.2776 20.9144C22.9819 20.9144 24.3635 22.3757 24.3635 24.1784C24.3635 25.981 22.9819 27.4423 21.2776 27.4423C19.5733 27.4423 18.1917 25.981 18.1917 24.1784C18.1917 23.8677 18.2328 23.5671 18.3095 23.2824L14.2707 19.6679L5.96416 23.5567C6.09823 23.9225 6.17177 24.3202 6.17177 24.7361C6.17177 26.5387 4.79017 28 3.08589 28C1.3816 28 0 26.5387 0 24.7361C0 22.9335 1.3816 21.4722 3.08589 21.4722C3.38082 21.4722 3.66609 21.5159 3.93621 21.5976L7.41537 16.3746C7.22502 15.9507 7.11851 15.4765 7.11851 14.976C7.11851 14.0259 7.50234 13.1706 8.11495 12.5741L4.72909 5.65042C4.58062 5.67727 4.42801 5.69126 4.2723 5.69126C2.78643 5.69126 1.58189 4.41723 1.58189 2.84563ZM6.43185 5.24219L9.624 11.7697C9.81198 11.7319 10.006 11.7121 10.2044 11.7121C10.74 11.7121 11.2436 11.8564 11.6826 12.1102L13.7921 10.3427L6.43185 5.24219ZM15.1878 9.17317L20.9905 4.31107C20.9178 4.08415 20.8682 3.84604 20.8444 3.59982H7.14514L15.1878 9.17317ZM15.2815 11.3748L12.8942 13.3751C13.1464 13.8481 13.2903 14.3943 13.2903 14.976C13.2903 15.4226 13.2055 15.8483 13.052 16.2359L14.5544 17.5806L20.0627 15.0019C20.075 14.9072 20.0917 14.814 20.1127 14.7226L15.2815 11.3748ZM12.8369 18.3847L11.9971 17.633C11.4918 18.0151 10.8729 18.2399 10.2044 18.2399C9.604 18.2399 9.04365 18.0586 8.56964 17.7448L6.01652 21.5777L12.8369 18.3847ZM23.9141 1.78723C23.143 1.78723 22.518 2.44837 22.518 3.26392C22.518 4.07947 23.143 4.74061 23.9141 4.74061C24.6852 4.74061 25.3103 4.07947 25.3103 3.26392C25.3103 2.44837 24.6852 1.78723 23.9141 1.78723ZM10.2044 13.4993C9.43333 13.4993 8.80826 14.1605 8.80826 14.976C8.80826 15.7916 9.43333 16.4527 10.2044 16.4527C10.9755 16.4527 11.6005 15.7916 11.6005 14.976C11.6005 14.1605 10.9755 13.4993 10.2044 13.4993ZM22.7277 14.3359C22.175 14.3359 21.727 14.8098 21.727 15.3943C21.727 15.9788 22.175 16.4527 22.7277 16.4527C23.2803 16.4527 23.7284 15.9788 23.7284 15.3943C23.7284 14.8098 23.2803 14.3359 22.7277 14.3359ZM21.2776 22.7017C20.5066 22.7017 19.8815 23.3628 19.8815 24.1784C19.8815 24.9939 20.5066 25.655 21.2776 25.655C22.0487 25.655 22.6738 24.9939 22.6738 24.1784C22.6738 23.3628 22.0487 22.7017 21.2776 22.7017ZM3.08589 23.2594C2.31482 23.2594 1.68975 23.9205 1.68975 24.7361C1.68975 25.5516 2.31482 26.2128 3.08589 26.2128C3.85695 26.2128 4.48202 25.5516 4.48202 24.7361C4.48202 23.9205 3.85695 23.2594 3.08589 23.2594Z" fill="url(#paint0_linear_108_696)"/>
<path fill-rule="evenodd" clip-rule="evenodd" d="M4.2723 1.78723C3.71965 1.78723 3.27164 2.26109 3.27164 2.84563C3.27164 3.43017 3.71965 3.90403 4.2723 3.90403C4.82496 3.90403 5.27297 3.43017 5.27297 2.84563C5.27297 2.26109 4.82496 1.78723 4.2723 1.78723ZM1.58189 2.84563C1.58189 1.27403 2.78643 0 4.2723 0C5.41365 0 6.389 0.751712 6.77995 1.81258H21.1493C21.6544 0.738253 22.7027 0 23.9141 0C25.6184 0 27 1.46131 27 3.26392C27 5.06653 25.6184 6.52784 23.9141 6.52784C23.1695 6.52784 22.4864 6.24888 21.9533 5.78437L16.6772 10.2053L21.0076 13.2061C21.4739 12.7956 22.0736 12.5487 22.7277 12.5487C24.2136 12.5487 25.4181 13.8227 25.4181 15.3943C25.4181 16.9659 24.2136 18.2399 22.7277 18.2399C21.7265 18.2399 20.853 17.6614 20.3897 16.8032L15.9882 18.8638L19.2144 21.7512C19.7611 21.231 20.4844 20.9144 21.2776 20.9144C22.9819 20.9144 24.3635 22.3757 24.3635 24.1784C24.3635 25.981 22.9819 27.4423 21.2776 27.4423C19.5733 27.4423 18.1917 25.981 18.1917 24.1784C18.1917 23.8677 18.2328 23.5671 18.3095 23.2824L14.2707 19.6679L5.96416 23.5567C6.09823 23.9225 6.17177 24.3202 6.17177 24.7361C6.17177 26.5387 4.79017 28 3.08589 28C1.3816 28 0 26.5387 0 24.7361C0 22.9335 1.3816 21.4722 3.08589 21.4722C3.38082 21.4722 3.66609 21.5159 3.93621 21.5976L7.41537 16.3746C7.22502 15.9507 7.11851 15.4765 7.11851 14.976C7.11851 14.0259 7.50234 13.1706 8.11495 12.5741L4.72909 5.65042C4.58062 5.67727 4.42801 5.69126 4.2723 5.69126C2.78643 5.69126 1.58189 4.41723 1.58189 2.84563ZM6.43185 5.24219L9.624 11.7697C9.81198 11.7319 10.006 11.7121 10.2044 11.7121C10.74 11.7121 11.2436 11.8564 11.6826 12.1102L13.7921 10.3427L6.43185 5.24219ZM15.1878 9.17317L20.9905 4.31107C20.9178 4.08415 20.8682 3.84604 20.8444 3.59982H7.14514L15.1878 9.17317ZM15.2815 11.3748L12.8942 13.3751C13.1464 13.8481 13.2903 14.3943 13.2903 14.976C13.2903 15.4226 13.2055 15.8483 13.052 16.2359L14.5544 17.5806L20.0627 15.0019C20.075 14.9072 20.0917 14.814 20.1127 14.7226L15.2815 11.3748ZM12.8369 18.3847L11.9971 17.633C11.4918 18.0151 10.8729 18.2399 10.2044 18.2399C9.604 18.2399 9.04365 18.0586 8.56964 17.7448L6.01652 21.5777L12.8369 18.3847ZM23.9141 1.78723C23.143 1.78723 22.518 2.44837 22.518 3.26392C22.518 4.07947 23.143 4.74061 23.9141 4.74061C24.6852 4.74061 25.3103 4.07947 25.3103 3.26392C25.3103 2.44837 24.6852 1.78723 23.9141 1.78723ZM10.2044 13.4993C9.43333 13.4993 8.80826 14.1605 8.80826 14.976C8.80826 15.7916 9.43333 16.4527 10.2044 16.4527C10.9755 16.4527 11.6005 15.7916 11.6005 14.976C11.6005 14.1605 10.9755 13.4993 10.2044 13.4993ZM22.7277 14.3359C22.175 14.3359 21.727 14.8098 21.727 15.3943C21.727 15.9788 22.175 16.4527 22.7277 16.4527C23.2803 16.4527 23.7284 15.9788 23.7284 15.3943C23.7284 14.8098 23.2803 14.3359 22.7277 14.3359ZM21.2776 22.7017C20.5066 22.7017 19.8815 23.3628 19.8815 24.1784C19.8815 24.9939 20.5066 25.655 21.2776 25.655C22.0487 25.655 22.6738 24.9939 22.6738 24.1784C22.6738 23.3628 22.0487 22.7017 21.2776 22.7017ZM3.08589 23.2594C2.31482 23.2594 1.68975 23.9205 1.68975 24.7361C1.68975 25.5516 2.31482 26.2128 3.08589 26.2128C3.85695 26.2128 4.48202 25.5516 4.48202 24.7361C4.48202 23.9205 3.85695 23.2594 3.08589 23.2594Z" fill="url(#paint1_linear_108_696)"/>
<defs>
<linearGradient id="paint0_linear_108_696" x1="13.5" y1="0" x2="13.5" y2="28" gradientUnits="userSpaceOnUse">
<stop offset="0.240494" stop-color="#A200FF"/>
<stop offset="1" stop-color="#7400D9"/>
</linearGradient>
<linearGradient id="paint1_linear_108_696" x1="13.2569" y1="-1.1619e-08" x2="13.5167" y2="27.9997" gradientUnits="userSpaceOnUse">
<stop stop-color="#FFA135"/>
<stop offset="1" stop-color="#8A4629"/>
</linearGradient>
</defs>
</svg>
