<svg width="27" height="28" viewBox="0 0 27 28" fill="none" xmlns="http://www.w3.org/2000/svg">
<path fill-rule="evenodd" clip-rule="evenodd" d="M8.06737 0.500168C12.5215 0.500168 16.1335 1.7409 16.1335 3.27278V5.73288C15.7022 6.61568 12.6562 7.73221 8.06737 7.73221C3.47856 7.73221 0.433872 6.61301 0.00260925 5.73288V3.27278C0.00124931 1.7409 3.61189 0.500168 8.06737 0.500168Z" fill="#F2C869"/>
<path fill-rule="evenodd" clip-rule="evenodd" d="M24.6366 22.3686L24.7509 22.1376V21.8625C25.2366 22.2191 25.5168 22.6157 25.5168 23.0404V25.5005C25.0856 26.3833 22.0395 27.4998 17.4507 27.4998C12.8619 27.4998 9.81723 26.3806 9.38461 25.5005V24.2237C11.0117 24.7205 13.1571 25.0117 15.5339 25.0117C20.1322 25.0064 23.8761 23.9232 24.6366 22.3686Z" fill="#EFD98B"/>
<path fill-rule="evenodd" clip-rule="evenodd" d="M23.6085 21.1631V21.8803C23.1773 22.7631 20.1312 23.8797 15.5424 23.8797C10.9536 23.8797 7.90891 22.7605 7.47629 21.8803V19.4202C7.48173 19.2399 7.53343 19.0623 7.62594 18.906V19.2907L7.74021 19.5231C8.50207 21.0763 12.2392 22.1608 16.8403 22.1608C19.5258 22.1608 21.9216 21.7855 23.6085 21.1631Z" fill="#E1AB4C"/>
<path fill-rule="evenodd" clip-rule="evenodd" d="M10.8691 15.2039V12.7452C10.8691 11.2146 14.4811 9.97255 18.9352 9.97255C23.3894 9.97255 27 11.2133 27 12.7452V15.2053C26.5701 16.0881 23.5227 17.2046 18.9339 17.2046C14.3451 17.2046 11.299 16.0841 10.8691 15.2039Z" fill="#FFD97A"/>
<path fill-rule="evenodd" clip-rule="evenodd" d="M9.72081 15.2674V15.4664L9.83508 15.6974C10.5969 17.2507 14.3341 18.3352 18.9351 18.3352C21.2193 18.3352 23.294 18.0667 24.8939 17.6059V19.035C24.4627 19.9178 21.4166 21.0343 16.8278 21.0343C12.239 21.0343 9.19431 19.9151 8.76169 19.035V16.5736C8.76169 16.1008 9.11132 15.6547 9.72081 15.2674V15.2674Z" fill="#FAC04A"/>
<path fill-rule="evenodd" clip-rule="evenodd" d="M16.1335 7.25838V9.0133C13.6969 9.30712 11.4984 10.0003 10.4223 11.1315C9.69311 11.1983 8.9054 11.2357 8.06737 11.2357C3.47992 11.2357 0.433872 10.1165 0.00260925 9.23634V7.25838C1.68549 8.3148 4.89071 8.86105 8.06873 8.86105C11.2467 8.86105 14.4506 8.3148 16.1335 7.25838Z" fill="#F4CE83"/>
<path fill-rule="evenodd" clip-rule="evenodd" d="M9.77075 12.3065C9.73946 12.4521 9.72314 12.6003 9.72314 12.7486V13.984C9.30412 14.1843 8.91231 14.4367 8.55995 14.7346H8.07291C3.48547 14.7346 0.439415 13.6154 0.00815201 12.7352V10.7586C1.69103 11.8164 4.89489 12.3626 8.07291 12.3626C8.63886 12.3599 9.21161 12.3426 9.77075 12.3065Z" fill="#FFDA7F"/>
<path fill-rule="evenodd" clip-rule="evenodd" d="M7.60851 16.5707V17.2932C7.24935 17.5363 6.93916 17.8448 6.69564 18.2001C2.87822 18.0051 0.38587 17.0221 -0.000498772 16.2381V14.2589C1.62524 15.2792 4.66857 15.8228 7.73639 15.8575C7.6534 16.0859 7.60987 16.3276 7.60851 16.5707Z" fill="#E8C278"/>
<path fill-rule="evenodd" clip-rule="evenodd" d="M6.32281 19.4197V21.6835C2.72306 21.4444 0.379001 20.5055 0.00623703 19.7416V17.769C1.38165 18.6317 3.77061 19.1539 6.33234 19.3169C6.32826 19.3489 6.32281 19.389 6.32281 19.4197Z" fill="#FFD166"/>
<path fill-rule="evenodd" clip-rule="evenodd" d="M8.23816 23.7965V25.4619H8.07082C3.61671 25.4619 0.00606823 24.2212 0.00606823 22.6893V21.2643C1.45903 22.1764 4.05477 22.708 6.77567 22.8362C7.19469 23.2462 7.69262 23.5721 8.23816 23.7965H8.23816Z" fill="#E0C390"/>
</svg>
