<svg width="34" height="35" viewBox="0 0 34 35" fill="none" xmlns="http://www.w3.org/2000/svg">
<path d="M17 0.5C26.367 0.5 34 8.133 34 17.5C34 26.867 26.367 34.5 17 34.5C7.633 34.5 0 26.867 0 17.5C0 8.133 7.633 0.5 17 0.5ZM12.257 18.401L18.258 24.402C18.513 24.657 18.836 24.776 19.159 24.776C19.482 24.776 19.805 24.657 20.06 24.402C20.553 23.909 20.553 23.093 20.06 22.6L14.96 17.5L20.06 12.4C20.553 11.907 20.553 11.091 20.06 10.598C19.567 10.105 18.751 10.105 18.258 10.598L12.257 16.599C11.747 17.092 11.747 17.908 12.257 18.401Z" fill="white"/>
</svg>
