<svg width="34" height="35" viewBox="0 0 34 35" fill="none" xmlns="http://www.w3.org/2000/svg">
<path d="M17 0.5C7.633 0.5 0 8.133 0 17.5C0 26.867 7.633 34.5 17 34.5C26.367 34.5 34 26.867 34 17.5C34 8.133 26.367 0.5 17 0.5ZM21.743 18.401L15.742 24.402C15.487 24.657 15.164 24.776 14.841 24.776C14.518 24.776 14.195 24.657 13.94 24.402C13.447 23.909 13.447 23.093 13.94 22.6L19.04 17.5L13.94 12.4C13.447 11.907 13.447 11.091 13.94 10.598C14.433 10.105 15.249 10.105 15.742 10.598L21.743 16.599C22.253 17.092 22.253 17.908 21.743 18.401Z" fill="white"/>
</svg>
